<?xml version="1.0" encoding="UTF-8" standalone="no"?>
<!DOCTYPE svg PUBLIC "-//W3C//DTD SVG 1.1//EN" "http://www.w3.org/Graphics/SVG/1.1/DTD/svg11.dtd">
<svg width="100%" height="100%" viewBox="0 0 976 1473" version="1.1" xmlns="http://www.w3.org/2000/svg" xmlns:xlink="http://www.w3.org/1999/xlink" xml:space="preserve" xmlns:serif="http://www.serif.com/" style="fill-rule:evenodd;clip-rule:evenodd;stroke-linecap:round;stroke-linejoin:round;stroke-miterlimit:1.5;">
    <g transform="matrix(1,0,0,1,-1137.21,-388.262)">
        <g transform="matrix(2.53906,0,0,3.125,0,0)">
            <g transform="matrix(0.393846,0,0,0.31773,-174.729,-187.367)">
                <path d="M1748.67,1049.57C1748.65,1049.04 1748.65,1048.52 1748.65,1048C1748.65,1012.68 1777.33,984 1812.65,984L1940.65,984C1975.97,984 2004.65,1012.68 2004.65,1048C2004.65,1048.52 2004.64,1049.04 2004.63,1049.57L2004.65,1049.58L2004.65,1059.91L2004.64,1059.92C2004.64,1060.27 2004.65,1060.64 2004.65,1061C2004.65,1096.32 1975.97,1125 1940.65,1125L1812.65,1125C1777.33,1125 1748.65,1096.32 1748.65,1061C1748.65,1060.64 1748.65,1060.27 1748.66,1059.92L1748.65,1059.91L1748.65,1049.58L1748.67,1049.57Z" style="fill:rgb(255,29,0);"/>
                <clipPath id="_clip1">
                    <path d="M1748.67,1049.57C1748.65,1049.04 1748.65,1048.52 1748.65,1048C1748.65,1012.68 1777.33,984 1812.65,984L1940.65,984C1975.97,984 2004.65,1012.68 2004.65,1048C2004.65,1048.52 2004.64,1049.04 2004.63,1049.57L2004.65,1049.58L2004.65,1059.91L2004.64,1059.92C2004.64,1060.27 2004.65,1060.64 2004.65,1061C2004.65,1096.32 1975.97,1125 1940.65,1125L1812.65,1125C1777.33,1125 1748.65,1096.32 1748.65,1061C1748.65,1060.64 1748.65,1060.27 1748.66,1059.92L1748.65,1059.91L1748.65,1049.58L1748.67,1049.57Z"/>
                </clipPath>
                <g clip-path="url(#_clip1)">
                    <g transform="matrix(1,0,0,1,1192,-64)">
                        <path d="M812.629,1113.57L812.648,1113.58L812.648,1123.91L812.639,1123.92C812.645,1124.27 812.648,1124.64 812.648,1125C812.648,1160.32 783.97,1189 748.648,1189L620.648,1189C585.325,1189 556.648,1160.32 556.648,1125C556.648,1124.64 556.651,1124.27 556.657,1123.92L556.648,1123.91L556.648,1113.58L556.667,1113.57C557.498,1148.16 585.848,1176 620.648,1176L748.648,1176C783.447,1176 811.797,1148.16 812.629,1113.57Z" style="fill-opacity:0.4;"/>
                    </g>
                    <g transform="matrix(-1,0,0,-1,3753.3,2446)">
                        <path d="M1940.65,1334C1975.97,1334 2004.65,1362.68 2004.65,1398C2004.65,1398.52 2004.64,1399.04 2004.63,1399.57L2004.65,1399.58L2004.63,1399.57C2003.8,1434.16 1975.45,1462 1940.65,1462L1934.65,1462L1818.75,1334L1940.65,1334Z" style="fill:white;fill-opacity:0.15;"/>
                    </g>
                </g>
                <path d="M1748.67,1049.57C1748.65,1049.04 1748.65,1048.52 1748.65,1048C1748.65,1012.68 1777.33,984 1812.65,984L1940.65,984C1975.97,984 2004.65,1012.68 2004.65,1048C2004.65,1048.52 2004.64,1049.04 2004.63,1049.57L2004.65,1049.58L2004.65,1059.91L2004.64,1059.92C2004.64,1060.27 2004.65,1060.64 2004.65,1061C2004.65,1096.32 1975.97,1125 1940.65,1125L1812.65,1125C1777.33,1125 1748.65,1096.32 1748.65,1061C1748.65,1060.64 1748.65,1060.27 1748.66,1059.92L1748.65,1059.91L1748.65,1049.58L1748.67,1049.57Z" style="fill:none;stroke:white;stroke-width:6.5px;"/>
            </g>
        </g>
        <g transform="matrix(2.53906,0,0,3.125,0,0)">
            <g transform="matrix(0.393846,0,0,0.31773,-174.729,-187.367)">
                <path d="M1584.1,1048C1584.1,1012.68 1612.78,984 1648.1,984C1683.42,984 1712.1,1012.68 1712.1,1048L1712.1,1061C1712.1,1096.32 1683.42,1125 1648.1,1125C1612.78,1125 1584.1,1096.32 1584.1,1061C1584.1,1061 1584.1,1048 1584.1,1048Z" style="fill:rgb(255,29,0);"/>
                <clipPath id="_clip2">
                    <path d="M1584.1,1048C1584.1,1012.68 1612.78,984 1648.1,984C1683.42,984 1712.1,1012.68 1712.1,1048L1712.1,1061C1712.1,1096.32 1683.42,1125 1648.1,1125C1612.78,1125 1584.1,1096.32 1584.1,1061C1584.1,1061 1584.1,1048 1584.1,1048Z"/>
                </clipPath>
                <g clip-path="url(#_clip2)">
                    <g transform="matrix(1,0,0,1,-40.9002,32.7094)">
                        <path d="M1753,1028.29C1753,1063.61 1724.32,1092.29 1689,1092.29C1653.68,1092.29 1625,1063.61 1625,1028.29C1625,1028.29 1625,1015.29 1625,1015.29C1625,1050.61 1653.68,1079.29 1689,1079.29C1724.32,1079.29 1753,1050.61 1753,1015.29L1753,1028.29Z" style="fill-opacity:0.4;"/>
                    </g>
                    <g transform="matrix(-0.745907,0.66605,-0.66605,-0.745907,3666.01,1120.36)">
                        <path d="M1457,1334C1492.18,1334 1520.78,1362.45 1521,1397.59L1521,1398C1521,1433.32 1492.32,1462 1457,1462L1457,1334Z" style="fill:white;fill-opacity:0.15;"/>
                    </g>
                </g>
                <path d="M1584.1,1048C1584.1,1012.68 1612.78,984 1648.1,984C1683.42,984 1712.1,1012.68 1712.1,1048L1712.1,1061C1712.1,1096.32 1683.42,1125 1648.1,1125C1612.78,1125 1584.1,1096.32 1584.1,1061C1584.1,1061 1584.1,1048 1584.1,1048Z" style="fill:none;stroke:white;stroke-width:6.5px;"/>
            </g>
        </g>
        <g transform="matrix(2.53906,0,0,3.125,0,0)">
            <g transform="matrix(0.393846,0,0,0.31773,-305.88,-187.367)">
                <path d="M2374.22,1049.57C2374.2,1049.04 2374.2,1048.52 2374.2,1048C2374.2,1012.68 2402.87,984 2438.2,984L2822.2,984C2857.52,984 2886.2,1012.68 2886.2,1048C2886.2,1048.52 2886.19,1049.04 2886.18,1049.57L2886.2,1049.58L2886.2,1059.91L2886.19,1059.92C2886.19,1060.27 2886.2,1060.64 2886.2,1061C2886.2,1096.32 2857.52,1125 2822.2,1125L2438.2,1125C2402.87,1125 2374.2,1096.32 2374.2,1061C2374.2,1060.64 2374.2,1060.27 2374.2,1059.92L2374.2,1059.91L2374.2,1049.58L2374.22,1049.57Z" style="fill:rgb(255,29,0);"/>
                <clipPath id="_clip3">
                    <path d="M2374.22,1049.57C2374.2,1049.04 2374.2,1048.52 2374.2,1048C2374.2,1012.68 2402.87,984 2438.2,984L2822.2,984C2857.52,984 2886.2,1012.68 2886.2,1048C2886.2,1048.52 2886.19,1049.04 2886.18,1049.57L2886.2,1049.58L2886.2,1059.91L2886.19,1059.92C2886.19,1060.27 2886.2,1060.64 2886.2,1061C2886.2,1096.32 2857.52,1125 2822.2,1125L2438.2,1125C2402.87,1125 2374.2,1096.32 2374.2,1061C2374.2,1060.64 2374.2,1060.27 2374.2,1059.92L2374.2,1059.91L2374.2,1049.58L2374.22,1049.57Z"/>
                </clipPath>
                <g clip-path="url(#_clip3)">
                    <g transform="matrix(1,0,0,1,1399,-365.284)">
                        <path d="M1487.18,1414.85L1487.19,1414.86L1487.19,1425.19L1487.19,1425.2C1487.19,1425.56 1487.19,1425.92 1487.19,1426.28C1487.19,1461.61 1458.52,1490.28 1423.19,1490.28L1039.19,1490.28C1003.87,1490.28 975.195,1461.61 975.195,1426.28C975.195,1425.92 975.199,1425.56 975.205,1425.2L975.195,1425.19L975.195,1414.86L975.215,1414.85C976.046,1449.45 1004.4,1477.28 1039.19,1477.28L1423.19,1477.28C1458,1477.28 1486.35,1449.45 1487.18,1414.85Z" style="fill-opacity:0.4;"/>
                    </g>
                    <g transform="matrix(-1,0,0,-1,4955.39,2479)">
                        <path d="M2267.1,1367L2517.2,1367C2552.52,1367 2581.2,1395.68 2581.2,1431C2581.2,1431.52 2581.19,1432.04 2581.18,1432.57L2581.2,1432.58L2581.18,1432.57C2580.35,1467.16 2551.99,1495 2517.2,1495L2383.3,1495L2267.1,1367Z" style="fill:white;fill-opacity:0.15;"/>
                    </g>
                </g>
                <path d="M2374.22,1049.57C2374.2,1049.04 2374.2,1048.52 2374.2,1048C2374.2,1012.68 2402.87,984 2438.2,984L2822.2,984C2857.52,984 2886.2,1012.68 2886.2,1048C2886.2,1048.52 2886.19,1049.04 2886.18,1049.57L2886.2,1049.58L2886.2,1059.91L2886.19,1059.92C2886.19,1060.27 2886.2,1060.64 2886.2,1061C2886.2,1096.32 2857.52,1125 2822.2,1125L2438.2,1125C2402.87,1125 2374.2,1096.32 2374.2,1061C2374.2,1060.64 2374.2,1060.27 2374.2,1059.92L2374.2,1059.91L2374.2,1049.58L2374.22,1049.57Z" style="fill:none;stroke:white;stroke-width:6.5px;"/>
            </g>
        </g>
        <g transform="matrix(2.53906,0,0,3.125,0,0)">
            <g transform="matrix(0.393846,0,0,0.31773,-174.729,-116.647)">
                <path d="M1748.67,1049.57C1748.65,1049.04 1748.65,1048.52 1748.65,1048C1748.65,1012.68 1777.33,984 1812.65,984L1940.65,984C1975.97,984 2004.65,1012.68 2004.65,1048C2004.65,1048.52 2004.64,1049.04 2004.63,1049.57L2004.65,1049.58L2004.65,1059.91L2004.64,1059.92C2004.64,1060.27 2004.65,1060.64 2004.65,1061C2004.65,1096.32 1975.97,1125 1940.65,1125L1812.65,1125C1777.33,1125 1748.65,1096.32 1748.65,1061C1748.65,1060.64 1748.65,1060.27 1748.66,1059.92L1748.65,1059.91L1748.65,1049.58L1748.67,1049.57Z" style="fill:rgb(255,152,0);"/>
                <clipPath id="_clip4">
                    <path d="M1748.67,1049.57C1748.65,1049.04 1748.65,1048.52 1748.65,1048C1748.65,1012.68 1777.33,984 1812.65,984L1940.65,984C1975.97,984 2004.65,1012.68 2004.65,1048C2004.65,1048.52 2004.64,1049.04 2004.63,1049.57L2004.65,1049.58L2004.65,1059.91L2004.64,1059.92C2004.64,1060.27 2004.65,1060.64 2004.65,1061C2004.65,1096.32 1975.97,1125 1940.65,1125L1812.65,1125C1777.33,1125 1748.65,1096.32 1748.65,1061C1748.65,1060.64 1748.65,1060.27 1748.66,1059.92L1748.65,1059.91L1748.65,1049.58L1748.67,1049.57Z"/>
                </clipPath>
                <g clip-path="url(#_clip4)">
                    <g transform="matrix(1,0,0,1,1192,-64)">
                        <path d="M812.629,1113.57L812.648,1113.58L812.648,1123.91L812.639,1123.92C812.645,1124.27 812.648,1124.64 812.648,1125C812.648,1160.32 783.97,1189 748.648,1189L620.648,1189C585.325,1189 556.648,1160.32 556.648,1125C556.648,1124.64 556.651,1124.27 556.657,1123.92L556.648,1123.91L556.648,1113.58L556.667,1113.57C557.498,1148.16 585.848,1176 620.648,1176L748.648,1176C783.447,1176 811.797,1148.16 812.629,1113.57Z" style="fill-opacity:0.4;"/>
                    </g>
                    <g transform="matrix(-1,0,0,-1,3753.3,2446)">
                        <path d="M1940.65,1334C1975.97,1334 2004.65,1362.68 2004.65,1398C2004.65,1398.52 2004.64,1399.04 2004.63,1399.57L2004.65,1399.58L2004.63,1399.57C2003.8,1434.16 1975.45,1462 1940.65,1462L1934.65,1462L1818.75,1334L1940.65,1334Z" style="fill:white;fill-opacity:0.15;"/>
                    </g>
                </g>
                <path d="M1748.67,1049.57C1748.65,1049.04 1748.65,1048.52 1748.65,1048C1748.65,1012.68 1777.33,984 1812.65,984L1940.65,984C1975.97,984 2004.65,1012.68 2004.65,1048C2004.65,1048.52 2004.64,1049.04 2004.63,1049.57L2004.65,1049.58L2004.65,1059.91L2004.64,1059.92C2004.64,1060.27 2004.65,1060.64 2004.65,1061C2004.65,1096.32 1975.97,1125 1940.65,1125L1812.65,1125C1777.33,1125 1748.65,1096.32 1748.65,1061C1748.65,1060.64 1748.65,1060.27 1748.66,1059.92L1748.65,1059.91L1748.65,1049.58L1748.67,1049.57Z" style="fill:none;stroke:white;stroke-width:6.5px;"/>
            </g>
        </g>
        <g transform="matrix(2.53906,0,0,3.125,0,0)">
            <g transform="matrix(0.393846,0,0,0.31773,-174.729,-116.647)">
                <path d="M1584.1,1048C1584.1,1012.68 1612.78,984 1648.1,984C1683.42,984 1712.1,1012.68 1712.1,1048L1712.1,1061C1712.1,1096.32 1683.42,1125 1648.1,1125C1612.78,1125 1584.1,1096.32 1584.1,1061C1584.1,1061 1584.1,1048 1584.1,1048Z" style="fill:rgb(255,152,0);"/>
                <clipPath id="_clip5">
                    <path d="M1584.1,1048C1584.1,1012.68 1612.78,984 1648.1,984C1683.42,984 1712.1,1012.68 1712.1,1048L1712.1,1061C1712.1,1096.32 1683.42,1125 1648.1,1125C1612.78,1125 1584.1,1096.32 1584.1,1061C1584.1,1061 1584.1,1048 1584.1,1048Z"/>
                </clipPath>
                <g clip-path="url(#_clip5)">
                    <g transform="matrix(1,0,0,1,-40.9002,32.7094)">
                        <path d="M1753,1028.29C1753,1063.61 1724.32,1092.29 1689,1092.29C1653.68,1092.29 1625,1063.61 1625,1028.29C1625,1028.29 1625,1015.29 1625,1015.29C1625,1050.61 1653.68,1079.29 1689,1079.29C1724.32,1079.29 1753,1050.61 1753,1015.29L1753,1028.29Z" style="fill-opacity:0.4;"/>
                    </g>
                    <g transform="matrix(-0.745907,0.66605,-0.66605,-0.745907,3666.01,1120.36)">
                        <path d="M1457,1334C1492.18,1334 1520.78,1362.45 1521,1397.59L1521,1398C1521,1433.32 1492.32,1462 1457,1462L1457,1334Z" style="fill:white;fill-opacity:0.15;"/>
                    </g>
                </g>
                <path d="M1584.1,1048C1584.1,1012.68 1612.78,984 1648.1,984C1683.42,984 1712.1,1012.68 1712.1,1048L1712.1,1061C1712.1,1096.32 1683.42,1125 1648.1,1125C1612.78,1125 1584.1,1096.32 1584.1,1061C1584.1,1061 1584.1,1048 1584.1,1048Z" style="fill:none;stroke:white;stroke-width:6.5px;"/>
            </g>
        </g>
        <g transform="matrix(2.53906,0,0,3.125,0,0)">
            <g transform="matrix(0.393846,0,0,0.31773,-305.88,-116.647)">
                <path d="M2374.22,1049.57C2374.2,1049.04 2374.2,1048.52 2374.2,1048C2374.2,1012.68 2402.87,984 2438.2,984L2822.2,984C2857.52,984 2886.2,1012.68 2886.2,1048C2886.2,1048.52 2886.19,1049.04 2886.18,1049.57L2886.2,1049.58L2886.2,1059.91L2886.19,1059.92C2886.19,1060.27 2886.2,1060.64 2886.2,1061C2886.2,1096.32 2857.52,1125 2822.2,1125L2438.2,1125C2402.87,1125 2374.2,1096.32 2374.2,1061C2374.2,1060.64 2374.2,1060.27 2374.2,1059.92L2374.2,1059.91L2374.2,1049.58L2374.22,1049.57Z" style="fill:rgb(255,152,0);"/>
                <clipPath id="_clip6">
                    <path d="M2374.22,1049.57C2374.2,1049.04 2374.2,1048.52 2374.2,1048C2374.2,1012.68 2402.87,984 2438.2,984L2822.2,984C2857.52,984 2886.2,1012.68 2886.2,1048C2886.2,1048.52 2886.19,1049.04 2886.18,1049.57L2886.2,1049.58L2886.2,1059.91L2886.19,1059.92C2886.19,1060.27 2886.2,1060.64 2886.2,1061C2886.2,1096.32 2857.52,1125 2822.2,1125L2438.2,1125C2402.87,1125 2374.2,1096.32 2374.2,1061C2374.2,1060.64 2374.2,1060.27 2374.2,1059.92L2374.2,1059.91L2374.2,1049.58L2374.22,1049.57Z"/>
                </clipPath>
                <g clip-path="url(#_clip6)">
                    <g transform="matrix(1,0,0,1,1399,-365.284)">
                        <path d="M1487.18,1414.85L1487.19,1414.86L1487.19,1425.19L1487.19,1425.2C1487.19,1425.56 1487.19,1425.92 1487.19,1426.28C1487.19,1461.61 1458.52,1490.28 1423.19,1490.28L1039.19,1490.28C1003.87,1490.28 975.195,1461.61 975.195,1426.28C975.195,1425.92 975.199,1425.56 975.205,1425.2L975.195,1425.19L975.195,1414.86L975.215,1414.85C976.046,1449.45 1004.4,1477.28 1039.19,1477.28L1423.19,1477.28C1458,1477.28 1486.35,1449.45 1487.18,1414.85Z" style="fill-opacity:0.4;"/>
                    </g>
                    <g transform="matrix(-1,0,0,-1,4955.39,2479)">
                        <path d="M2267.1,1367L2517.2,1367C2552.52,1367 2581.2,1395.68 2581.2,1431C2581.2,1431.52 2581.19,1432.04 2581.18,1432.57L2581.2,1432.58L2581.18,1432.57C2580.35,1467.16 2551.99,1495 2517.2,1495L2383.3,1495L2267.1,1367Z" style="fill:white;fill-opacity:0.15;"/>
                    </g>
                </g>
                <path d="M2374.22,1049.57C2374.2,1049.04 2374.2,1048.52 2374.2,1048C2374.2,1012.68 2402.87,984 2438.2,984L2822.2,984C2857.52,984 2886.2,1012.68 2886.2,1048C2886.2,1048.52 2886.19,1049.04 2886.18,1049.57L2886.2,1049.58L2886.2,1059.91L2886.19,1059.92C2886.19,1060.27 2886.2,1060.64 2886.2,1061C2886.2,1096.32 2857.52,1125 2822.2,1125L2438.2,1125C2402.87,1125 2374.2,1096.32 2374.2,1061C2374.2,1060.64 2374.2,1060.27 2374.2,1059.92L2374.2,1059.91L2374.2,1049.58L2374.22,1049.57Z" style="fill:none;stroke:white;stroke-width:6.5px;"/>
            </g>
        </g>
        <g transform="matrix(2.53906,0,0,3.125,0,0)">
            <g transform="matrix(0.393846,0,0,0.31773,-174.729,-45.9268)">
                <path d="M1748.67,1049.57C1748.65,1049.04 1748.65,1048.52 1748.65,1048C1748.65,1012.68 1777.33,984 1812.65,984L1940.65,984C1975.97,984 2004.65,1012.68 2004.65,1048C2004.65,1048.52 2004.64,1049.04 2004.63,1049.57L2004.65,1049.58L2004.65,1059.91L2004.64,1059.92C2004.64,1060.27 2004.65,1060.64 2004.65,1061C2004.65,1096.32 1975.97,1125 1940.65,1125L1812.65,1125C1777.33,1125 1748.65,1096.32 1748.65,1061C1748.65,1060.64 1748.65,1060.27 1748.66,1059.92L1748.65,1059.91L1748.65,1049.58L1748.67,1049.57Z" style="fill:rgb(241,187,17);"/>
                <clipPath id="_clip7">
                    <path d="M1748.67,1049.57C1748.65,1049.04 1748.65,1048.52 1748.65,1048C1748.65,1012.68 1777.33,984 1812.65,984L1940.65,984C1975.97,984 2004.65,1012.68 2004.65,1048C2004.65,1048.52 2004.64,1049.04 2004.63,1049.57L2004.65,1049.58L2004.65,1059.91L2004.64,1059.92C2004.64,1060.27 2004.65,1060.64 2004.65,1061C2004.65,1096.32 1975.97,1125 1940.65,1125L1812.65,1125C1777.33,1125 1748.65,1096.32 1748.65,1061C1748.65,1060.64 1748.65,1060.27 1748.66,1059.92L1748.65,1059.91L1748.65,1049.58L1748.67,1049.57Z"/>
                </clipPath>
                <g clip-path="url(#_clip7)">
                    <g transform="matrix(1,0,0,1,1192,-64)">
                        <path d="M812.629,1113.57L812.648,1113.58L812.648,1123.91L812.639,1123.92C812.645,1124.27 812.648,1124.64 812.648,1125C812.648,1160.32 783.97,1189 748.648,1189L620.648,1189C585.325,1189 556.648,1160.32 556.648,1125C556.648,1124.64 556.651,1124.27 556.657,1123.92L556.648,1123.91L556.648,1113.58L556.667,1113.57C557.498,1148.16 585.848,1176 620.648,1176L748.648,1176C783.447,1176 811.797,1148.16 812.629,1113.57Z" style="fill-opacity:0.4;"/>
                    </g>
                    <g transform="matrix(-1,0,0,-1,3753.3,2446)">
                        <path d="M1940.65,1334C1975.97,1334 2004.65,1362.68 2004.65,1398C2004.65,1398.52 2004.64,1399.04 2004.63,1399.57L2004.65,1399.58L2004.63,1399.57C2003.8,1434.16 1975.45,1462 1940.65,1462L1934.65,1462L1818.75,1334L1940.65,1334Z" style="fill:white;fill-opacity:0.15;"/>
                    </g>
                </g>
                <path d="M1748.67,1049.57C1748.65,1049.04 1748.65,1048.52 1748.65,1048C1748.65,1012.68 1777.33,984 1812.65,984L1940.65,984C1975.97,984 2004.65,1012.68 2004.65,1048C2004.65,1048.52 2004.64,1049.04 2004.63,1049.57L2004.65,1049.58L2004.65,1059.91L2004.64,1059.92C2004.64,1060.27 2004.65,1060.64 2004.65,1061C2004.65,1096.32 1975.97,1125 1940.65,1125L1812.65,1125C1777.33,1125 1748.65,1096.32 1748.65,1061C1748.65,1060.64 1748.65,1060.27 1748.66,1059.92L1748.65,1059.91L1748.65,1049.58L1748.67,1049.57Z" style="fill:none;stroke:white;stroke-width:6.5px;"/>
            </g>
        </g>
        <g transform="matrix(2.53906,0,0,3.125,0,0)">
            <g transform="matrix(0.393846,0,0,0.31773,-174.729,-45.9268)">
                <path d="M1584.1,1048C1584.1,1012.68 1612.78,984 1648.1,984C1683.42,984 1712.1,1012.68 1712.1,1048L1712.1,1061C1712.1,1096.32 1683.42,1125 1648.1,1125C1612.78,1125 1584.1,1096.32 1584.1,1061C1584.1,1061 1584.1,1048 1584.1,1048Z" style="fill:rgb(241,187,17);"/>
                <clipPath id="_clip8">
                    <path d="M1584.1,1048C1584.1,1012.68 1612.78,984 1648.1,984C1683.42,984 1712.1,1012.68 1712.1,1048L1712.1,1061C1712.1,1096.32 1683.42,1125 1648.1,1125C1612.78,1125 1584.1,1096.32 1584.1,1061C1584.1,1061 1584.1,1048 1584.1,1048Z"/>
                </clipPath>
                <g clip-path="url(#_clip8)">
                    <g transform="matrix(1,0,0,1,-40.9002,32.7094)">
                        <path d="M1753,1028.29C1753,1063.61 1724.32,1092.29 1689,1092.29C1653.68,1092.29 1625,1063.61 1625,1028.29C1625,1028.29 1625,1015.29 1625,1015.29C1625,1050.61 1653.68,1079.29 1689,1079.29C1724.32,1079.29 1753,1050.61 1753,1015.29L1753,1028.29Z" style="fill-opacity:0.4;"/>
                    </g>
                    <g transform="matrix(-0.745907,0.66605,-0.66605,-0.745907,3666.01,1120.36)">
                        <path d="M1457,1334C1492.18,1334 1520.78,1362.45 1521,1397.59L1521,1398C1521,1433.32 1492.32,1462 1457,1462L1457,1334Z" style="fill:white;fill-opacity:0.15;"/>
                    </g>
                </g>
                <path d="M1584.1,1048C1584.1,1012.68 1612.78,984 1648.1,984C1683.42,984 1712.1,1012.68 1712.1,1048L1712.1,1061C1712.1,1096.32 1683.42,1125 1648.1,1125C1612.78,1125 1584.1,1096.32 1584.1,1061C1584.1,1061 1584.1,1048 1584.1,1048Z" style="fill:none;stroke:white;stroke-width:6.5px;"/>
            </g>
        </g>
        <g transform="matrix(2.53906,0,0,3.125,0,0)">
            <g transform="matrix(0.393846,0,0,0.31773,-305.88,-45.9268)">
                <path d="M2374.22,1049.57C2374.2,1049.04 2374.2,1048.52 2374.2,1048C2374.2,1012.68 2402.87,984 2438.2,984L2822.2,984C2857.52,984 2886.2,1012.68 2886.2,1048C2886.2,1048.52 2886.19,1049.04 2886.18,1049.57L2886.2,1049.58L2886.2,1059.91L2886.19,1059.92C2886.19,1060.27 2886.2,1060.64 2886.2,1061C2886.2,1096.32 2857.52,1125 2822.2,1125L2438.2,1125C2402.87,1125 2374.2,1096.32 2374.2,1061C2374.2,1060.64 2374.2,1060.27 2374.2,1059.92L2374.2,1059.91L2374.2,1049.58L2374.22,1049.57Z" style="fill:rgb(241,187,17);"/>
                <clipPath id="_clip9">
                    <path d="M2374.22,1049.57C2374.2,1049.04 2374.2,1048.52 2374.2,1048C2374.2,1012.68 2402.87,984 2438.2,984L2822.2,984C2857.52,984 2886.2,1012.68 2886.2,1048C2886.2,1048.52 2886.19,1049.04 2886.18,1049.57L2886.2,1049.58L2886.2,1059.91L2886.19,1059.92C2886.19,1060.27 2886.2,1060.64 2886.2,1061C2886.2,1096.32 2857.52,1125 2822.2,1125L2438.2,1125C2402.87,1125 2374.2,1096.32 2374.2,1061C2374.2,1060.64 2374.2,1060.27 2374.2,1059.92L2374.2,1059.91L2374.2,1049.58L2374.22,1049.57Z"/>
                </clipPath>
                <g clip-path="url(#_clip9)">
                    <g transform="matrix(1,0,0,1,1399,-365.284)">
                        <path d="M1487.18,1414.85L1487.19,1414.86L1487.19,1425.19L1487.19,1425.2C1487.19,1425.56 1487.19,1425.92 1487.19,1426.28C1487.19,1461.61 1458.52,1490.28 1423.19,1490.28L1039.19,1490.28C1003.87,1490.28 975.195,1461.61 975.195,1426.28C975.195,1425.92 975.199,1425.56 975.205,1425.2L975.195,1425.19L975.195,1414.86L975.215,1414.85C976.046,1449.45 1004.4,1477.28 1039.19,1477.28L1423.19,1477.28C1458,1477.28 1486.35,1449.45 1487.18,1414.85Z" style="fill-opacity:0.4;"/>
                    </g>
                    <g transform="matrix(-1,0,0,-1,4955.39,2479)">
                        <path d="M2267.1,1367L2517.2,1367C2552.52,1367 2581.2,1395.68 2581.2,1431C2581.2,1431.52 2581.19,1432.04 2581.18,1432.57L2581.2,1432.58L2581.18,1432.57C2580.35,1467.16 2551.99,1495 2517.2,1495L2383.3,1495L2267.1,1367Z" style="fill:white;fill-opacity:0.15;"/>
                    </g>
                </g>
                <path d="M2374.22,1049.57C2374.2,1049.04 2374.2,1048.52 2374.2,1048C2374.2,1012.68 2402.87,984 2438.2,984L2822.2,984C2857.52,984 2886.2,1012.68 2886.2,1048C2886.2,1048.52 2886.19,1049.04 2886.18,1049.57L2886.2,1049.58L2886.2,1059.91L2886.19,1059.92C2886.19,1060.27 2886.2,1060.64 2886.2,1061C2886.2,1096.32 2857.52,1125 2822.2,1125L2438.2,1125C2402.87,1125 2374.2,1096.32 2374.2,1061C2374.2,1060.64 2374.2,1060.27 2374.2,1059.92L2374.2,1059.91L2374.2,1049.58L2374.22,1049.57Z" style="fill:none;stroke:white;stroke-width:6.5px;"/>
            </g>
        </g>
        <g transform="matrix(2.53906,0,0,3.125,0,0)">
            <g transform="matrix(0.393846,0,0,0.31773,-174.729,24.7932)">
                <path d="M1748.67,1049.57C1748.65,1049.04 1748.65,1048.52 1748.65,1048C1748.65,1012.68 1777.33,984 1812.65,984L1940.65,984C1975.97,984 2004.65,1012.68 2004.65,1048C2004.65,1048.52 2004.64,1049.04 2004.63,1049.57L2004.65,1049.58L2004.65,1059.91L2004.64,1059.92C2004.64,1060.27 2004.65,1060.64 2004.65,1061C2004.65,1096.32 1975.97,1125 1940.65,1125L1812.65,1125C1777.33,1125 1748.65,1096.32 1748.65,1061C1748.65,1060.64 1748.65,1060.27 1748.66,1059.92L1748.65,1059.91L1748.65,1049.58L1748.67,1049.57Z" style="fill:rgb(0,212,91);"/>
                <clipPath id="_clip10">
                    <path d="M1748.67,1049.57C1748.65,1049.04 1748.65,1048.52 1748.65,1048C1748.65,1012.68 1777.33,984 1812.65,984L1940.65,984C1975.97,984 2004.65,1012.68 2004.65,1048C2004.65,1048.52 2004.64,1049.04 2004.63,1049.57L2004.65,1049.58L2004.65,1059.91L2004.64,1059.92C2004.64,1060.27 2004.65,1060.64 2004.65,1061C2004.65,1096.32 1975.97,1125 1940.65,1125L1812.65,1125C1777.33,1125 1748.65,1096.32 1748.65,1061C1748.65,1060.64 1748.65,1060.27 1748.66,1059.92L1748.65,1059.91L1748.65,1049.58L1748.67,1049.57Z"/>
                </clipPath>
                <g clip-path="url(#_clip10)">
                    <g transform="matrix(1,0,0,1,1192,-64)">
                        <path d="M812.629,1113.57L812.648,1113.58L812.648,1123.91L812.639,1123.92C812.645,1124.27 812.648,1124.64 812.648,1125C812.648,1160.32 783.97,1189 748.648,1189L620.648,1189C585.325,1189 556.648,1160.32 556.648,1125C556.648,1124.64 556.651,1124.27 556.657,1123.92L556.648,1123.91L556.648,1113.58L556.667,1113.57C557.498,1148.16 585.848,1176 620.648,1176L748.648,1176C783.447,1176 811.797,1148.16 812.629,1113.57Z" style="fill-opacity:0.4;"/>
                    </g>
                    <g transform="matrix(-1,0,0,-1,3753.3,2446)">
                        <path d="M1940.65,1334C1975.97,1334 2004.65,1362.68 2004.65,1398C2004.65,1398.52 2004.64,1399.04 2004.63,1399.57L2004.65,1399.58L2004.63,1399.57C2003.8,1434.16 1975.45,1462 1940.65,1462L1934.65,1462L1818.75,1334L1940.65,1334Z" style="fill:white;fill-opacity:0.15;"/>
                    </g>
                </g>
                <path d="M1748.67,1049.57C1748.65,1049.04 1748.65,1048.52 1748.65,1048C1748.65,1012.68 1777.33,984 1812.65,984L1940.65,984C1975.97,984 2004.65,1012.68 2004.65,1048C2004.65,1048.52 2004.64,1049.04 2004.63,1049.57L2004.65,1049.58L2004.65,1059.91L2004.64,1059.92C2004.64,1060.27 2004.65,1060.64 2004.65,1061C2004.65,1096.32 1975.97,1125 1940.65,1125L1812.65,1125C1777.33,1125 1748.65,1096.32 1748.65,1061C1748.65,1060.64 1748.65,1060.27 1748.66,1059.92L1748.65,1059.91L1748.65,1049.58L1748.67,1049.57Z" style="fill:none;stroke:white;stroke-width:6.5px;"/>
            </g>
        </g>
        <g transform="matrix(2.53906,0,0,3.125,0,0)">
            <g transform="matrix(0.393846,0,0,0.31773,-174.729,24.7932)">
                <path d="M1584.1,1048C1584.1,1012.68 1612.78,984 1648.1,984C1683.42,984 1712.1,1012.68 1712.1,1048L1712.1,1061C1712.1,1096.32 1683.42,1125 1648.1,1125C1612.78,1125 1584.1,1096.32 1584.1,1061C1584.1,1061 1584.1,1048 1584.1,1048Z" style="fill:rgb(0,212,91);"/>
                <clipPath id="_clip11">
                    <path d="M1584.1,1048C1584.1,1012.68 1612.78,984 1648.1,984C1683.42,984 1712.1,1012.68 1712.1,1048L1712.1,1061C1712.1,1096.32 1683.42,1125 1648.1,1125C1612.78,1125 1584.1,1096.32 1584.1,1061C1584.1,1061 1584.1,1048 1584.1,1048Z"/>
                </clipPath>
                <g clip-path="url(#_clip11)">
                    <g transform="matrix(1,0,0,1,-40.9002,32.7094)">
                        <path d="M1753,1028.29C1753,1063.61 1724.32,1092.29 1689,1092.29C1653.68,1092.29 1625,1063.61 1625,1028.29C1625,1028.29 1625,1015.29 1625,1015.29C1625,1050.61 1653.68,1079.29 1689,1079.29C1724.32,1079.29 1753,1050.61 1753,1015.29L1753,1028.29Z" style="fill-opacity:0.4;"/>
                    </g>
                    <g transform="matrix(-0.745907,0.66605,-0.66605,-0.745907,3666.01,1120.36)">
                        <path d="M1457,1334C1492.18,1334 1520.78,1362.45 1521,1397.59L1521,1398C1521,1433.32 1492.32,1462 1457,1462L1457,1334Z" style="fill:white;fill-opacity:0.15;"/>
                    </g>
                </g>
                <path d="M1584.1,1048C1584.1,1012.68 1612.78,984 1648.1,984C1683.42,984 1712.1,1012.68 1712.1,1048L1712.1,1061C1712.1,1096.32 1683.42,1125 1648.1,1125C1612.78,1125 1584.1,1096.32 1584.1,1061C1584.1,1061 1584.1,1048 1584.1,1048Z" style="fill:none;stroke:white;stroke-width:6.5px;"/>
            </g>
        </g>
        <g transform="matrix(2.53906,0,0,3.125,0,0)">
            <g transform="matrix(0.393846,0,0,0.31773,-305.88,24.7932)">
                <path d="M2374.22,1049.57C2374.2,1049.04 2374.2,1048.52 2374.2,1048C2374.2,1012.68 2402.87,984 2438.2,984L2822.2,984C2857.52,984 2886.2,1012.68 2886.2,1048C2886.2,1048.52 2886.19,1049.04 2886.18,1049.57L2886.2,1049.58L2886.2,1059.91L2886.19,1059.92C2886.19,1060.27 2886.2,1060.64 2886.2,1061C2886.2,1096.32 2857.52,1125 2822.2,1125L2438.2,1125C2402.87,1125 2374.2,1096.32 2374.2,1061C2374.2,1060.64 2374.2,1060.27 2374.2,1059.92L2374.2,1059.91L2374.2,1049.58L2374.22,1049.57Z" style="fill:rgb(0,212,91);"/>
                <clipPath id="_clip12">
                    <path d="M2374.22,1049.57C2374.2,1049.04 2374.2,1048.52 2374.2,1048C2374.2,1012.68 2402.87,984 2438.2,984L2822.2,984C2857.52,984 2886.2,1012.68 2886.2,1048C2886.2,1048.52 2886.19,1049.04 2886.18,1049.57L2886.2,1049.58L2886.2,1059.91L2886.19,1059.92C2886.19,1060.27 2886.2,1060.64 2886.2,1061C2886.2,1096.32 2857.52,1125 2822.2,1125L2438.2,1125C2402.87,1125 2374.2,1096.32 2374.2,1061C2374.2,1060.64 2374.2,1060.27 2374.2,1059.92L2374.2,1059.91L2374.2,1049.58L2374.22,1049.57Z"/>
                </clipPath>
                <g clip-path="url(#_clip12)">
                    <g transform="matrix(1,0,0,1,1399,-365.284)">
                        <path d="M1487.18,1414.85L1487.19,1414.86L1487.19,1425.19L1487.19,1425.2C1487.19,1425.56 1487.19,1425.92 1487.19,1426.28C1487.19,1461.61 1458.52,1490.28 1423.19,1490.28L1039.19,1490.28C1003.87,1490.28 975.195,1461.61 975.195,1426.28C975.195,1425.92 975.199,1425.56 975.205,1425.2L975.195,1425.19L975.195,1414.86L975.215,1414.85C976.046,1449.45 1004.4,1477.28 1039.19,1477.28L1423.19,1477.28C1458,1477.28 1486.35,1449.45 1487.18,1414.85Z" style="fill-opacity:0.4;"/>
                    </g>
                    <g transform="matrix(-1,0,0,-1,4955.39,2479)">
                        <path d="M2267.1,1367L2517.2,1367C2552.52,1367 2581.2,1395.68 2581.2,1431C2581.2,1431.52 2581.19,1432.04 2581.18,1432.57L2581.2,1432.58L2581.18,1432.57C2580.35,1467.16 2551.99,1495 2517.2,1495L2383.3,1495L2267.1,1367Z" style="fill:white;fill-opacity:0.15;"/>
                    </g>
                </g>
                <path d="M2374.22,1049.57C2374.2,1049.04 2374.2,1048.52 2374.2,1048C2374.2,1012.68 2402.87,984 2438.2,984L2822.2,984C2857.52,984 2886.2,1012.68 2886.2,1048C2886.2,1048.52 2886.19,1049.04 2886.18,1049.57L2886.2,1049.58L2886.2,1059.91L2886.19,1059.92C2886.19,1060.27 2886.2,1060.64 2886.2,1061C2886.2,1096.32 2857.52,1125 2822.2,1125L2438.2,1125C2402.87,1125 2374.2,1096.32 2374.2,1061C2374.2,1060.64 2374.2,1060.27 2374.2,1059.92L2374.2,1059.91L2374.2,1049.58L2374.22,1049.57Z" style="fill:none;stroke:white;stroke-width:6.5px;"/>
            </g>
        </g>
        <g transform="matrix(2.53906,0,0,3.125,0,0)">
            <g transform="matrix(0.393846,0,0,0.31773,-174.729,95.5132)">
                <path d="M1748.67,1049.57C1748.65,1049.04 1748.65,1048.52 1748.65,1048C1748.65,1012.68 1777.33,984 1812.65,984L1940.65,984C1975.97,984 2004.65,1012.68 2004.65,1048C2004.65,1048.52 2004.64,1049.04 2004.63,1049.57L2004.65,1049.58L2004.65,1059.91L2004.64,1059.92C2004.64,1060.27 2004.65,1060.64 2004.65,1061C2004.65,1096.32 1975.97,1125 1940.65,1125L1812.65,1125C1777.33,1125 1748.65,1096.32 1748.65,1061C1748.65,1060.64 1748.65,1060.27 1748.66,1059.92L1748.65,1059.91L1748.65,1049.58L1748.67,1049.57Z" style="fill:rgb(28,171,241);"/>
                <clipPath id="_clip13">
                    <path d="M1748.67,1049.57C1748.65,1049.04 1748.65,1048.52 1748.65,1048C1748.65,1012.68 1777.33,984 1812.65,984L1940.65,984C1975.97,984 2004.65,1012.68 2004.65,1048C2004.65,1048.52 2004.64,1049.04 2004.63,1049.57L2004.65,1049.58L2004.65,1059.91L2004.64,1059.92C2004.64,1060.27 2004.65,1060.64 2004.65,1061C2004.65,1096.32 1975.97,1125 1940.65,1125L1812.65,1125C1777.33,1125 1748.65,1096.32 1748.65,1061C1748.65,1060.64 1748.65,1060.27 1748.66,1059.92L1748.65,1059.91L1748.65,1049.58L1748.67,1049.57Z"/>
                </clipPath>
                <g clip-path="url(#_clip13)">
                    <g transform="matrix(1,0,0,1,1192,-64)">
                        <path d="M812.629,1113.57L812.648,1113.58L812.648,1123.91L812.639,1123.92C812.645,1124.27 812.648,1124.64 812.648,1125C812.648,1160.32 783.97,1189 748.648,1189L620.648,1189C585.325,1189 556.648,1160.32 556.648,1125C556.648,1124.64 556.651,1124.27 556.657,1123.92L556.648,1123.91L556.648,1113.58L556.667,1113.57C557.498,1148.16 585.848,1176 620.648,1176L748.648,1176C783.447,1176 811.797,1148.16 812.629,1113.57Z" style="fill-opacity:0.4;"/>
                    </g>
                    <g transform="matrix(-1,0,0,-1,3753.3,2446)">
                        <path d="M1940.65,1334C1975.97,1334 2004.65,1362.68 2004.65,1398C2004.65,1398.52 2004.64,1399.04 2004.63,1399.57L2004.65,1399.58L2004.63,1399.57C2003.8,1434.16 1975.45,1462 1940.65,1462L1934.65,1462L1818.75,1334L1940.65,1334Z" style="fill:white;fill-opacity:0.15;"/>
                    </g>
                </g>
                <path d="M1748.67,1049.57C1748.65,1049.04 1748.65,1048.52 1748.65,1048C1748.65,1012.68 1777.33,984 1812.65,984L1940.65,984C1975.97,984 2004.65,1012.68 2004.65,1048C2004.65,1048.52 2004.64,1049.04 2004.63,1049.57L2004.65,1049.58L2004.65,1059.91L2004.64,1059.92C2004.64,1060.27 2004.65,1060.64 2004.65,1061C2004.65,1096.32 1975.97,1125 1940.65,1125L1812.65,1125C1777.33,1125 1748.65,1096.32 1748.65,1061C1748.65,1060.64 1748.65,1060.27 1748.66,1059.92L1748.65,1059.91L1748.65,1049.58L1748.67,1049.57Z" style="fill:none;stroke:white;stroke-width:6.5px;"/>
            </g>
        </g>
        <g transform="matrix(2.53906,0,0,3.125,0,0)">
            <g transform="matrix(0.393846,0,0,0.31773,-174.729,95.5132)">
                <path d="M1584.1,1048C1584.1,1012.68 1612.78,984 1648.1,984C1683.42,984 1712.1,1012.68 1712.1,1048L1712.1,1061C1712.1,1096.32 1683.42,1125 1648.1,1125C1612.78,1125 1584.1,1096.32 1584.1,1061C1584.1,1061 1584.1,1048 1584.1,1048Z" style="fill:rgb(28,171,241);"/>
                <clipPath id="_clip14">
                    <path d="M1584.1,1048C1584.1,1012.68 1612.78,984 1648.1,984C1683.42,984 1712.1,1012.68 1712.1,1048L1712.1,1061C1712.1,1096.32 1683.42,1125 1648.1,1125C1612.78,1125 1584.1,1096.32 1584.1,1061C1584.1,1061 1584.1,1048 1584.1,1048Z"/>
                </clipPath>
                <g clip-path="url(#_clip14)">
                    <g transform="matrix(1,0,0,1,-40.9002,32.7094)">
                        <path d="M1753,1028.29C1753,1063.61 1724.32,1092.29 1689,1092.29C1653.68,1092.29 1625,1063.61 1625,1028.29C1625,1028.29 1625,1015.29 1625,1015.29C1625,1050.61 1653.68,1079.29 1689,1079.29C1724.32,1079.29 1753,1050.61 1753,1015.29L1753,1028.29Z" style="fill-opacity:0.4;"/>
                    </g>
                    <g transform="matrix(-0.745907,0.66605,-0.66605,-0.745907,3666.01,1120.36)">
                        <path d="M1457,1334C1492.18,1334 1520.78,1362.45 1521,1397.59L1521,1398C1521,1433.32 1492.32,1462 1457,1462L1457,1334Z" style="fill:white;fill-opacity:0.15;"/>
                    </g>
                </g>
                <path d="M1584.1,1048C1584.1,1012.68 1612.78,984 1648.1,984C1683.42,984 1712.1,1012.68 1712.1,1048L1712.1,1061C1712.1,1096.32 1683.42,1125 1648.1,1125C1612.78,1125 1584.1,1096.32 1584.1,1061C1584.1,1061 1584.1,1048 1584.1,1048Z" style="fill:none;stroke:white;stroke-width:6.5px;"/>
            </g>
        </g>
        <g transform="matrix(2.53906,0,0,3.125,0,0)">
            <g transform="matrix(0.393846,0,0,0.31773,-305.88,95.5132)">
                <path d="M2374.22,1049.57C2374.2,1049.04 2374.2,1048.52 2374.2,1048C2374.2,1012.68 2402.87,984 2438.2,984L2822.2,984C2857.52,984 2886.2,1012.68 2886.2,1048C2886.2,1048.52 2886.19,1049.04 2886.18,1049.57L2886.2,1049.58L2886.2,1059.91L2886.19,1059.92C2886.19,1060.27 2886.2,1060.64 2886.2,1061C2886.2,1096.32 2857.52,1125 2822.2,1125L2438.2,1125C2402.87,1125 2374.2,1096.32 2374.2,1061C2374.2,1060.64 2374.2,1060.27 2374.2,1059.92L2374.2,1059.91L2374.2,1049.58L2374.22,1049.57Z" style="fill:rgb(28,171,241);"/>
                <clipPath id="_clip15">
                    <path d="M2374.22,1049.57C2374.2,1049.04 2374.2,1048.52 2374.2,1048C2374.2,1012.68 2402.87,984 2438.2,984L2822.2,984C2857.52,984 2886.2,1012.68 2886.2,1048C2886.2,1048.52 2886.19,1049.04 2886.18,1049.57L2886.2,1049.58L2886.2,1059.91L2886.19,1059.92C2886.19,1060.27 2886.2,1060.64 2886.2,1061C2886.2,1096.32 2857.52,1125 2822.2,1125L2438.2,1125C2402.87,1125 2374.2,1096.32 2374.2,1061C2374.2,1060.64 2374.2,1060.27 2374.2,1059.92L2374.2,1059.91L2374.2,1049.58L2374.22,1049.57Z"/>
                </clipPath>
                <g clip-path="url(#_clip15)">
                    <g transform="matrix(1,0,0,1,1399,-365.284)">
                        <path d="M1487.18,1414.85L1487.19,1414.86L1487.19,1425.19L1487.19,1425.2C1487.19,1425.56 1487.19,1425.92 1487.19,1426.28C1487.19,1461.61 1458.52,1490.28 1423.19,1490.28L1039.19,1490.28C1003.87,1490.28 975.195,1461.61 975.195,1426.28C975.195,1425.92 975.199,1425.56 975.205,1425.2L975.195,1425.19L975.195,1414.86L975.215,1414.85C976.046,1449.45 1004.4,1477.28 1039.19,1477.28L1423.19,1477.28C1458,1477.28 1486.35,1449.45 1487.18,1414.85Z" style="fill-opacity:0.4;"/>
                    </g>
                    <g transform="matrix(-1,0,0,-1,4955.39,2479)">
                        <path d="M2267.1,1367L2517.2,1367C2552.52,1367 2581.2,1395.68 2581.2,1431C2581.2,1431.52 2581.19,1432.04 2581.18,1432.57L2581.2,1432.58L2581.18,1432.57C2580.35,1467.16 2551.99,1495 2517.2,1495L2383.3,1495L2267.1,1367Z" style="fill:white;fill-opacity:0.15;"/>
                    </g>
                </g>
                <path d="M2374.22,1049.57C2374.2,1049.04 2374.2,1048.52 2374.2,1048C2374.2,1012.68 2402.87,984 2438.2,984L2822.2,984C2857.52,984 2886.2,1012.68 2886.2,1048C2886.2,1048.52 2886.19,1049.04 2886.18,1049.57L2886.2,1049.58L2886.2,1059.91L2886.19,1059.92C2886.19,1060.27 2886.2,1060.64 2886.2,1061C2886.2,1096.32 2857.52,1125 2822.2,1125L2438.2,1125C2402.87,1125 2374.2,1096.32 2374.2,1061C2374.2,1060.64 2374.2,1060.27 2374.2,1059.92L2374.2,1059.91L2374.2,1049.58L2374.22,1049.57Z" style="fill:none;stroke:white;stroke-width:6.5px;"/>
            </g>
        </g>
        <g transform="matrix(2.53906,0,0,3.125,0,0)">
            <g transform="matrix(0.393846,0,0,0.31773,-174.729,166.233)">
                <path d="M1748.67,1049.57C1748.65,1049.04 1748.65,1048.52 1748.65,1048C1748.65,1012.68 1777.33,984 1812.65,984L1940.65,984C1975.97,984 2004.65,1012.68 2004.65,1048C2004.65,1048.52 2004.64,1049.04 2004.63,1049.57L2004.65,1049.58L2004.65,1059.91L2004.64,1059.92C2004.64,1060.27 2004.65,1060.64 2004.65,1061C2004.65,1096.32 1975.97,1125 1940.65,1125L1812.65,1125C1777.33,1125 1748.65,1096.32 1748.65,1061C1748.65,1060.64 1748.65,1060.27 1748.66,1059.92L1748.65,1059.91L1748.65,1049.58L1748.67,1049.57Z" style="fill:rgb(186,104,200);"/>
                <clipPath id="_clip16">
                    <path d="M1748.67,1049.57C1748.65,1049.04 1748.65,1048.52 1748.65,1048C1748.65,1012.68 1777.33,984 1812.65,984L1940.65,984C1975.97,984 2004.65,1012.68 2004.65,1048C2004.65,1048.52 2004.64,1049.04 2004.63,1049.57L2004.65,1049.58L2004.65,1059.91L2004.64,1059.92C2004.64,1060.27 2004.65,1060.64 2004.65,1061C2004.65,1096.32 1975.97,1125 1940.65,1125L1812.65,1125C1777.33,1125 1748.65,1096.32 1748.65,1061C1748.65,1060.64 1748.65,1060.27 1748.66,1059.92L1748.65,1059.91L1748.65,1049.58L1748.67,1049.57Z"/>
                </clipPath>
                <g clip-path="url(#_clip16)">
                    <g transform="matrix(1,0,0,1,1192,-64)">
                        <path d="M812.629,1113.57L812.648,1113.58L812.648,1123.91L812.639,1123.92C812.645,1124.27 812.648,1124.64 812.648,1125C812.648,1160.32 783.97,1189 748.648,1189L620.648,1189C585.325,1189 556.648,1160.32 556.648,1125C556.648,1124.64 556.651,1124.27 556.657,1123.92L556.648,1123.91L556.648,1113.58L556.667,1113.57C557.498,1148.16 585.848,1176 620.648,1176L748.648,1176C783.447,1176 811.797,1148.16 812.629,1113.57Z" style="fill-opacity:0.4;"/>
                    </g>
                    <g transform="matrix(-1,0,0,-1,3753.3,2446)">
                        <path d="M1940.65,1334C1975.97,1334 2004.65,1362.68 2004.65,1398C2004.65,1398.52 2004.64,1399.04 2004.63,1399.57L2004.65,1399.58L2004.63,1399.57C2003.8,1434.16 1975.45,1462 1940.65,1462L1934.65,1462L1818.75,1334L1940.65,1334Z" style="fill:white;fill-opacity:0.15;"/>
                    </g>
                </g>
                <path d="M1748.67,1049.57C1748.65,1049.04 1748.65,1048.52 1748.65,1048C1748.65,1012.68 1777.33,984 1812.65,984L1940.65,984C1975.97,984 2004.65,1012.68 2004.65,1048C2004.65,1048.52 2004.64,1049.04 2004.63,1049.57L2004.65,1049.58L2004.65,1059.91L2004.64,1059.92C2004.64,1060.27 2004.65,1060.64 2004.65,1061C2004.65,1096.32 1975.97,1125 1940.65,1125L1812.65,1125C1777.33,1125 1748.65,1096.32 1748.65,1061C1748.65,1060.64 1748.65,1060.27 1748.66,1059.92L1748.65,1059.91L1748.65,1049.58L1748.67,1049.57Z" style="fill:none;stroke:white;stroke-width:6.5px;"/>
            </g>
        </g>
        <g transform="matrix(2.53906,0,0,3.125,0,0)">
            <g transform="matrix(0.393846,0,0,0.31773,-174.729,166.233)">
                <path d="M1584.1,1048C1584.1,1012.68 1612.78,984 1648.1,984C1683.42,984 1712.1,1012.68 1712.1,1048L1712.1,1061C1712.1,1096.32 1683.42,1125 1648.1,1125C1612.78,1125 1584.1,1096.32 1584.1,1061C1584.1,1061 1584.1,1048 1584.1,1048Z" style="fill:rgb(186,104,200);"/>
                <clipPath id="_clip17">
                    <path d="M1584.1,1048C1584.1,1012.68 1612.78,984 1648.1,984C1683.42,984 1712.1,1012.68 1712.1,1048L1712.1,1061C1712.1,1096.32 1683.42,1125 1648.1,1125C1612.78,1125 1584.1,1096.32 1584.1,1061C1584.1,1061 1584.1,1048 1584.1,1048Z"/>
                </clipPath>
                <g clip-path="url(#_clip17)">
                    <g transform="matrix(1,0,0,1,-40.9002,32.7094)">
                        <path d="M1753,1028.29C1753,1063.61 1724.32,1092.29 1689,1092.29C1653.68,1092.29 1625,1063.61 1625,1028.29C1625,1028.29 1625,1015.29 1625,1015.29C1625,1050.61 1653.68,1079.29 1689,1079.29C1724.32,1079.29 1753,1050.61 1753,1015.29L1753,1028.29Z" style="fill-opacity:0.4;"/>
                    </g>
                    <g transform="matrix(-0.745907,0.66605,-0.66605,-0.745907,3666.01,1120.36)">
                        <path d="M1457,1334C1492.18,1334 1520.78,1362.45 1521,1397.59L1521,1398C1521,1433.32 1492.32,1462 1457,1462L1457,1334Z" style="fill:white;fill-opacity:0.15;"/>
                    </g>
                </g>
                <path d="M1584.1,1048C1584.1,1012.68 1612.78,984 1648.1,984C1683.42,984 1712.1,1012.68 1712.1,1048L1712.1,1061C1712.1,1096.32 1683.42,1125 1648.1,1125C1612.78,1125 1584.1,1096.32 1584.1,1061C1584.1,1061 1584.1,1048 1584.1,1048Z" style="fill:none;stroke:white;stroke-width:6.5px;"/>
            </g>
        </g>
        <g transform="matrix(2.53906,0,0,3.125,0,0)">
            <g transform="matrix(0.393846,0,0,0.31773,-305.88,166.233)">
                <path d="M2374.22,1049.57C2374.2,1049.04 2374.2,1048.52 2374.2,1048C2374.2,1012.68 2402.87,984 2438.2,984L2822.2,984C2857.52,984 2886.2,1012.68 2886.2,1048C2886.2,1048.52 2886.19,1049.04 2886.18,1049.57L2886.2,1049.58L2886.2,1059.91L2886.19,1059.92C2886.19,1060.27 2886.2,1060.64 2886.2,1061C2886.2,1096.32 2857.52,1125 2822.2,1125L2438.2,1125C2402.87,1125 2374.2,1096.32 2374.2,1061C2374.2,1060.64 2374.2,1060.27 2374.2,1059.92L2374.2,1059.91L2374.2,1049.58L2374.22,1049.57Z" style="fill:rgb(186,104,200);"/>
                <clipPath id="_clip18">
                    <path d="M2374.22,1049.57C2374.2,1049.04 2374.2,1048.52 2374.2,1048C2374.2,1012.68 2402.87,984 2438.2,984L2822.2,984C2857.52,984 2886.2,1012.68 2886.2,1048C2886.2,1048.52 2886.19,1049.04 2886.18,1049.57L2886.2,1049.58L2886.2,1059.91L2886.19,1059.92C2886.19,1060.27 2886.2,1060.64 2886.2,1061C2886.2,1096.32 2857.52,1125 2822.2,1125L2438.2,1125C2402.87,1125 2374.2,1096.32 2374.2,1061C2374.2,1060.64 2374.2,1060.27 2374.2,1059.92L2374.2,1059.91L2374.2,1049.58L2374.22,1049.57Z"/>
                </clipPath>
                <g clip-path="url(#_clip18)">
                    <g transform="matrix(1,0,0,1,1399,-365.284)">
                        <path d="M1487.18,1414.85L1487.19,1414.86L1487.19,1425.19L1487.19,1425.2C1487.19,1425.56 1487.19,1425.92 1487.19,1426.28C1487.19,1461.61 1458.52,1490.28 1423.19,1490.28L1039.19,1490.28C1003.87,1490.28 975.195,1461.61 975.195,1426.28C975.195,1425.92 975.199,1425.56 975.205,1425.2L975.195,1425.19L975.195,1414.86L975.215,1414.85C976.046,1449.45 1004.4,1477.28 1039.19,1477.28L1423.19,1477.28C1458,1477.28 1486.35,1449.45 1487.18,1414.85Z" style="fill-opacity:0.4;"/>
                    </g>
                    <g transform="matrix(-1,0,0,-1,4955.39,2479)">
                        <path d="M2267.1,1367L2517.2,1367C2552.52,1367 2581.2,1395.68 2581.2,1431C2581.2,1431.52 2581.19,1432.04 2581.18,1432.57L2581.2,1432.58L2581.18,1432.57C2580.35,1467.16 2551.99,1495 2517.2,1495L2383.3,1495L2267.1,1367Z" style="fill:white;fill-opacity:0.15;"/>
                    </g>
                </g>
                <path d="M2374.22,1049.57C2374.2,1049.04 2374.2,1048.52 2374.2,1048C2374.2,1012.68 2402.87,984 2438.2,984L2822.2,984C2857.52,984 2886.2,1012.68 2886.2,1048C2886.2,1048.52 2886.19,1049.04 2886.18,1049.57L2886.2,1049.58L2886.2,1059.91L2886.19,1059.92C2886.19,1060.27 2886.2,1060.64 2886.2,1061C2886.2,1096.32 2857.52,1125 2822.2,1125L2438.2,1125C2402.87,1125 2374.2,1096.32 2374.2,1061C2374.2,1060.64 2374.2,1060.27 2374.2,1059.92L2374.2,1059.91L2374.2,1049.58L2374.22,1049.57Z" style="fill:none;stroke:white;stroke-width:6.5px;"/>
            </g>
        </g>
        <g transform="matrix(2.53906,0,0,3.125,0,0)">
            <g transform="matrix(0.393846,0,0,0.31773,-174.729,236.953)">
                <path d="M1748.67,1049.57C1748.65,1049.04 1748.65,1048.52 1748.65,1048C1748.65,1012.68 1777.33,984 1812.65,984L1940.65,984C1975.97,984 2004.65,1012.68 2004.65,1048C2004.65,1048.52 2004.64,1049.04 2004.63,1049.57L2004.65,1049.58L2004.65,1059.91L2004.64,1059.92C2004.64,1060.27 2004.65,1060.64 2004.65,1061C2004.65,1096.32 1975.97,1125 1940.65,1125L1812.65,1125C1777.33,1125 1748.65,1096.32 1748.65,1061C1748.65,1060.64 1748.65,1060.27 1748.66,1059.92L1748.65,1059.91L1748.65,1049.58L1748.67,1049.57Z" style="fill:rgb(87,78,104);"/>
                <clipPath id="_clip19">
                    <path d="M1748.67,1049.57C1748.65,1049.04 1748.65,1048.52 1748.65,1048C1748.65,1012.68 1777.33,984 1812.65,984L1940.65,984C1975.97,984 2004.65,1012.68 2004.65,1048C2004.65,1048.52 2004.64,1049.04 2004.63,1049.57L2004.65,1049.58L2004.65,1059.91L2004.64,1059.92C2004.64,1060.27 2004.65,1060.64 2004.65,1061C2004.65,1096.32 1975.97,1125 1940.65,1125L1812.65,1125C1777.33,1125 1748.65,1096.32 1748.65,1061C1748.65,1060.64 1748.65,1060.27 1748.66,1059.92L1748.65,1059.91L1748.65,1049.58L1748.67,1049.57Z"/>
                </clipPath>
                <g clip-path="url(#_clip19)">
                    <g transform="matrix(1,0,0,1,1192,-64)">
                        <path d="M812.629,1113.57L812.648,1113.58L812.648,1123.91L812.639,1123.92C812.645,1124.27 812.648,1124.64 812.648,1125C812.648,1160.32 783.97,1189 748.648,1189L620.648,1189C585.325,1189 556.648,1160.32 556.648,1125C556.648,1124.64 556.651,1124.27 556.657,1123.92L556.648,1123.91L556.648,1113.58L556.667,1113.57C557.498,1148.16 585.848,1176 620.648,1176L748.648,1176C783.447,1176 811.797,1148.16 812.629,1113.57Z" style="fill-opacity:0.4;"/>
                    </g>
                    <g transform="matrix(-1,0,0,-1,3753.3,2446)">
                        <path d="M1940.65,1334C1975.97,1334 2004.65,1362.68 2004.65,1398C2004.65,1398.52 2004.64,1399.04 2004.63,1399.57L2004.65,1399.58L2004.63,1399.57C2003.8,1434.16 1975.45,1462 1940.65,1462L1934.65,1462L1818.75,1334L1940.65,1334Z" style="fill:white;fill-opacity:0.15;"/>
                    </g>
                </g>
                <path d="M1748.67,1049.57C1748.65,1049.04 1748.65,1048.52 1748.65,1048C1748.65,1012.68 1777.33,984 1812.65,984L1940.65,984C1975.97,984 2004.65,1012.68 2004.65,1048C2004.65,1048.52 2004.64,1049.04 2004.63,1049.57L2004.65,1049.58L2004.65,1059.91L2004.64,1059.92C2004.64,1060.27 2004.65,1060.64 2004.65,1061C2004.65,1096.32 1975.97,1125 1940.65,1125L1812.65,1125C1777.33,1125 1748.65,1096.32 1748.65,1061C1748.65,1060.64 1748.65,1060.27 1748.66,1059.92L1748.65,1059.91L1748.65,1049.58L1748.67,1049.57Z" style="fill:none;stroke:white;stroke-width:6.5px;"/>
            </g>
        </g>
        <g transform="matrix(2.53906,0,0,3.125,0,0)">
            <g transform="matrix(0.393846,0,0,0.31773,-174.729,236.953)">
                <path d="M1584.1,1048C1584.1,1012.68 1612.78,984 1648.1,984C1683.42,984 1712.1,1012.68 1712.1,1048L1712.1,1061C1712.1,1096.32 1683.42,1125 1648.1,1125C1612.78,1125 1584.1,1096.32 1584.1,1061C1584.1,1061 1584.1,1048 1584.1,1048Z" style="fill:rgb(87,78,104);"/>
                <clipPath id="_clip20">
                    <path d="M1584.1,1048C1584.1,1012.68 1612.78,984 1648.1,984C1683.42,984 1712.1,1012.68 1712.1,1048L1712.1,1061C1712.1,1096.32 1683.42,1125 1648.1,1125C1612.78,1125 1584.1,1096.32 1584.1,1061C1584.1,1061 1584.1,1048 1584.1,1048Z"/>
                </clipPath>
                <g clip-path="url(#_clip20)">
                    <g transform="matrix(1,0,0,1,-40.9002,32.7094)">
                        <path d="M1753,1028.29C1753,1063.61 1724.32,1092.29 1689,1092.29C1653.68,1092.29 1625,1063.61 1625,1028.29C1625,1028.29 1625,1015.29 1625,1015.29C1625,1050.61 1653.68,1079.29 1689,1079.29C1724.32,1079.29 1753,1050.61 1753,1015.29L1753,1028.29Z" style="fill-opacity:0.4;"/>
                    </g>
                    <g transform="matrix(-0.745907,0.66605,-0.66605,-0.745907,3666.01,1120.36)">
                        <path d="M1457,1334C1492.18,1334 1520.78,1362.45 1521,1397.59L1521,1398C1521,1433.32 1492.32,1462 1457,1462L1457,1334Z" style="fill:white;fill-opacity:0.15;"/>
                    </g>
                </g>
                <path d="M1584.1,1048C1584.1,1012.68 1612.78,984 1648.1,984C1683.42,984 1712.1,1012.68 1712.1,1048L1712.1,1061C1712.1,1096.32 1683.42,1125 1648.1,1125C1612.78,1125 1584.1,1096.32 1584.1,1061C1584.1,1061 1584.1,1048 1584.1,1048Z" style="fill:none;stroke:white;stroke-width:6.5px;"/>
            </g>
        </g>
        <g transform="matrix(2.53906,0,0,3.125,0,0)">
            <g transform="matrix(0.393846,0,0,0.31773,-305.88,236.953)">
                <path d="M2374.22,1049.57C2374.2,1049.04 2374.2,1048.52 2374.2,1048C2374.2,1012.68 2402.87,984 2438.2,984L2822.2,984C2857.52,984 2886.2,1012.68 2886.2,1048C2886.2,1048.52 2886.19,1049.04 2886.18,1049.57L2886.2,1049.58L2886.2,1059.91L2886.19,1059.92C2886.19,1060.27 2886.2,1060.64 2886.2,1061C2886.2,1096.32 2857.52,1125 2822.2,1125L2438.2,1125C2402.87,1125 2374.2,1096.32 2374.2,1061C2374.2,1060.64 2374.2,1060.27 2374.2,1059.92L2374.2,1059.91L2374.2,1049.58L2374.22,1049.57Z" style="fill:rgb(87,78,104);"/>
                <clipPath id="_clip21">
                    <path d="M2374.22,1049.57C2374.2,1049.04 2374.2,1048.52 2374.2,1048C2374.2,1012.68 2402.87,984 2438.2,984L2822.2,984C2857.52,984 2886.2,1012.68 2886.2,1048C2886.2,1048.52 2886.19,1049.04 2886.18,1049.57L2886.2,1049.58L2886.2,1059.91L2886.19,1059.92C2886.19,1060.27 2886.2,1060.64 2886.2,1061C2886.2,1096.32 2857.52,1125 2822.2,1125L2438.2,1125C2402.87,1125 2374.2,1096.32 2374.2,1061C2374.2,1060.64 2374.2,1060.27 2374.2,1059.92L2374.2,1059.91L2374.2,1049.58L2374.22,1049.57Z"/>
                </clipPath>
                <g clip-path="url(#_clip21)">
                    <g transform="matrix(1,0,0,1,1399,-365.284)">
                        <path d="M1487.18,1414.85L1487.19,1414.86L1487.19,1425.19L1487.19,1425.2C1487.19,1425.56 1487.19,1425.92 1487.19,1426.28C1487.19,1461.61 1458.52,1490.28 1423.19,1490.28L1039.19,1490.28C1003.87,1490.28 975.195,1461.61 975.195,1426.28C975.195,1425.92 975.199,1425.56 975.205,1425.2L975.195,1425.19L975.195,1414.86L975.215,1414.85C976.046,1449.45 1004.4,1477.28 1039.19,1477.28L1423.19,1477.28C1458,1477.28 1486.35,1449.45 1487.18,1414.85Z" style="fill-opacity:0.4;"/>
                    </g>
                    <g transform="matrix(-1,0,0,-1,4955.39,2479)">
                        <path d="M2267.1,1367L2517.2,1367C2552.52,1367 2581.2,1395.68 2581.2,1431C2581.2,1431.52 2581.19,1432.04 2581.18,1432.57L2581.2,1432.58L2581.18,1432.57C2580.35,1467.16 2551.99,1495 2517.2,1495L2383.3,1495L2267.1,1367Z" style="fill:white;fill-opacity:0.15;"/>
                    </g>
                </g>
                <path d="M2374.22,1049.57C2374.2,1049.04 2374.2,1048.52 2374.2,1048C2374.2,1012.68 2402.87,984 2438.2,984L2822.2,984C2857.52,984 2886.2,1012.68 2886.2,1048C2886.2,1048.52 2886.19,1049.04 2886.18,1049.57L2886.2,1049.58L2886.2,1059.91L2886.19,1059.92C2886.19,1060.27 2886.2,1060.64 2886.2,1061C2886.2,1096.32 2857.52,1125 2822.2,1125L2438.2,1125C2402.87,1125 2374.2,1096.32 2374.2,1061C2374.2,1060.64 2374.2,1060.27 2374.2,1059.92L2374.2,1059.91L2374.2,1049.58L2374.22,1049.57Z" style="fill:none;stroke:white;stroke-width:6.5px;"/>
            </g>
        </g>
    </g>
</svg>
